<?xml version="1.0" standalone="no"?>
<!DOCTYPE svg PUBLIC "-//W3C//DTD SVG 20010904//EN"
 "http://www.w3.org/TR/2001/REC-SVG-20010904/DTD/svg10.dtd">
<svg version="1.0" xmlns="http://www.w3.org/2000/svg"
 width="720.000000pt" height="720.000000pt" viewBox="0 0 720.000000 720.000000"
 preserveAspectRatio="xMidYMid meet">

<g transform="translate(0.000000,720.000000) scale(0.100000,-0.100000)"
fill="#000000" stroke="none">
<path d="M0 3600 l0 -3600 905 0 c581 0 905 3 905 10 0 5 13 16 29 24 15 8 34
29 41 46 12 28 11 32 -16 57 -15 14 -29 38 -30 52 -1 14 -5 33 -9 42 -3 10 -2
20 3 23 6 3 13 -5 16 -19 4 -14 12 -24 19 -22 8 1 11 -10 9 -34 -4 -44 12 -59
29 -27 7 13 12 24 11 26 -11 16 4 5 27 -19 l30 -31 22 26 c13 14 26 26 31 26
17 0 7 -28 -22 -55 -16 -16 -30 -33 -30 -39 0 -14 -52 -58 -59 -50 -3 3 6 16
22 28 24 20 26 24 15 48 l-12 26 -23 -30 c-12 -17 -19 -37 -16 -46 4 -15 3
-15 -6 -2 -7 10 -11 11 -11 3 0 -21 -3 -27 -19 -43 -13 -13 -8 -15 49 -18 34
-2 69 -1 76 2 19 7 18 36 -1 36 -17 0 -20 16 -5 25 15 9 44 -10 60 -39 12 -24
18 -26 87 -26 42 0 73 4 73 10 0 6 -5 9 -11 8 -11 -3 -89 135 -89 157 0 7 13
23 30 36 36 29 38 48 5 79 -33 31 -35 104 -4 144 11 14 25 24 29 21 11 -7 40
47 40 73 0 25 22 43 39 33 11 -7 8 -16 -12 -42 -31 -41 -77 -137 -77 -159 0
-9 10 -26 23 -38 l24 -22 18 21 c18 19 20 19 32 3 7 -10 13 -14 13 -8 0 5 7
-4 15 -20 12 -23 13 -32 3 -43 -10 -12 -7 -19 14 -34 15 -11 29 -33 33 -49 3
-16 13 -34 21 -41 23 -19 16 -58 -16 -91 -16 -16 -30 -31 -30 -34 0 -2 1103
-4 2450 -4 l2450 0 0 2650 0 2650 -155 -6 -155 -7 0 34 c-1 19 -7 106 -15 194
l-13 160 36 30 c42 35 82 43 210 44 l92 1 0 725 0 725 -2253 0 c-2136 0 -2267
-1 -2537 -20 -157 -10 -309 -22 -337 -25 -50 -5 -53 -4 -59 20 l-6 25 -1004 0
-1004 0 0 -3600z m2832 3312 c14 -12 30 -58 33 -94 0 -3 3 -9 6 -12 3 -4 2
-32 -4 -64 -5 -31 -10 -69 -10 -84 0 -16 -5 -28 -9 -28 -5 0 -8 -6 -7 -12 1
-7 -3 -26 -9 -41 -7 -16 -12 -34 -12 -42 0 -19 -17 -28 -23 -13 -3 7 -6 3 -6
-9 -1 -25 -17 -31 -24 -10 -2 6 -2 1 0 -14 2 -14 -3 -40 -11 -59 -13 -31 -12
-38 4 -70 10 -20 42 -61 72 -91 73 -76 100 -110 94 -117 -8 -7 -47 29 -41 38
5 8 -69 80 -81 80 -5 0 69 -96 111 -143 38 -42 -22 -26 -71 20 -16 15 -21 21
-10 13 21 -15 21 -15 2 7 -10 12 -21 22 -25 21 -22 -2 -32 4 -27 18 3 8 2 13
-3 10 -4 -3 -16 3 -26 14 -18 20 -19 19 -37 -32 -23 -67 -23 -74 5 -102 29
-29 29 -69 0 -96 -13 -11 -20 -27 -17 -35 4 -8 3 -15 0 -15 -4 0 -11 10 -15
23 -9 22 -9 21 -16 -6 -5 -17 -3 -33 4 -40 8 -8 11 -8 11 1 0 7 5 12 10 12 6
0 10 -6 10 -14 0 -8 7 -16 15 -20 25 -9 19 -62 -10 -84 -32 -25 -31 -29 4 -37
30 -6 46 -29 35 -47 -4 -7 -10 -5 -16 5 -10 20 -88 20 -88 0 0 -7 7 -10 15 -7
17 7 21 -11 5 -21 -15 -9 -42 15 -36 31 3 7 1 16 -5 19 -5 4 -12 -1 -15 -9 -3
-9 -10 -16 -15 -16 -14 0 -11 40 4 44 51 16 49 13 26 45 -21 29 -21 31 -5 55
9 15 21 26 26 26 6 0 10 9 10 20 0 35 -15 22 -44 -37 -25 -54 -154 -203 -174
-203 -5 0 -20 -10 -34 -22 -37 -34 -75 -54 -169 -88 -166 -61 -348 -46 -480
39 -35 23 -68 41 -75 41 -6 0 -23 -11 -38 -25 -15 -14 -31 -25 -37 -25 -5 0
-9 -4 -9 -10 0 -5 -6 -10 -12 -10 -42 -1 -172 -199 -184 -279 l-7 -44 79 8
c43 4 96 7 116 6 20 -1 39 3 43 9 13 21 25 9 27 -27 l1 -38 4 39 c3 22 8 35
11 29 4 -6 4 -62 0 -125 -3 -62 -9 -196 -12 -298 -4 -102 -9 -211 -12 -243
l-6 -59 -57 6 c-39 5 -52 4 -41 -4 12 -7 7 -10 -20 -10 -19 0 -46 -3 -60 -6
-24 -5 -24 -5 -6 10 21 17 17 20 -23 16 -14 -1 -21 2 -17 9 4 6 0 11 -8 11 -9
0 -16 -4 -16 -10 0 -5 -6 -7 -14 -4 -8 3 -32 -4 -55 -16 -37 -19 -41 -24 -41
-60 0 -21 5 -42 10 -45 6 -4 10 11 10 39 0 53 20 70 69 60 41 -8 28 -27 -15
-22 l-34 4 0 -172 c0 -105 -4 -175 -10 -179 -6 -3 -10 2 -10 12 -1 16 -2 16
-13 3 -7 -9 -23 -17 -36 -17 -39 -3 -45 -19 -12 -33 31 -12 39 -24 23 -34 -5
-3 -44 8 -88 24 -81 31 -104 32 -254 15 -19 -2 -75 -7 -125 -11 -49 -3 -93 -8
-97 -11 -4 -2 -17 1 -28 7 -15 8 -19 18 -15 45 9 76 8 204 -2 217 -6 7 -13 27
-15 43 -3 29 -5 30 -48 28 -25 0 -83 -4 -129 -8 l-84 -8 7 134 c7 132 10 165
20 264 3 28 10 101 15 164 6 63 14 118 18 122 5 4 64 15 133 24 69 9 128 20
133 24 4 4 12 72 18 152 6 79 14 147 17 150 8 7 216 41 245 41 9 -1 16 2 13 6
-2 4 12 7 32 7 21 0 86 7 145 17 60 9 127 18 150 20 l42 3 5 -75 c4 -60 7 -70
14 -50 10 28 60 96 91 122 49 43 118 90 145 99 l30 11 -25 36 c-14 21 -38 75
-53 122 -49 153 -31 312 56 488 60 123 173 243 275 292 37 18 72 41 77 51 9
15 57 34 76 29 4 -1 10 2 13 7 3 4 15 15 25 23 18 13 19 13 12 0 -7 -13 -6
-13 6 0 21 24 68 51 78 45 5 -3 12 0 16 6 4 8 3 9 -4 5 -20 -12 -13 20 7 38
11 10 17 25 14 34 -5 12 -1 14 16 9 12 -3 37 0 54 8 27 11 188 27 392 38 69 4
117 -3 137 -21z m-2543 -126 c13 -14 21 -31 18 -38 -3 -8 -6 -5 -6 7 -1 17 -3
17 -11 5 -8 -13 -10 -13 -10 1 0 9 -9 19 -21 22 -12 3 -18 10 -14 16 10 16 19
13 44 -13z m3385 -12 c3 -9 6 -27 6 -41 0 -39 -25 -22 -28 20 -3 37 11 50 22
21z m-3123 -55 c17 -17 28 -33 26 -35 -10 -10 -57 9 -57 22 0 8 -7 14 -15 14
-16 0 -20 12 -8 23 12 12 23 7 54 -24z m3459 -313 c0 -11 -19 -15 -25 -6 -3 5
1 10 9 10 9 0 16 -2 16 -4z m-3331 -31 c13 -14 21 -28 17 -32 -3 -3 -6 -1 -6
6 0 7 -4 10 -10 6 -10 -6 -50 24 -50 37 0 16 26 7 49 -17z m3568 -72 c-3 -10
-5 -4 -5 12 0 17 2 24 5 18 2 -7 2 -21 0 -30z m-3762 -23 c-3 -5 3 -10 15 -10
13 0 20 -5 18 -12 -7 -19 -53 -16 -53 2 -1 8 4 18 10 22 14 11 17 10 10 -2z
m99 -65 c-4 -10 -2 -13 8 -10 17 7 42 -19 36 -36 -2 -7 -16 -1 -36 16 -35 29
-41 45 -17 45 9 0 12 -6 9 -15z m2373 -77 c11 -18 13 -38 4 -38 -13 0 -41 36
-34 43 10 11 21 8 30 -5z m1500 -40 c-3 -7 -5 -2 -5 12 0 14 2 19 5 13 2 -7 2
-19 0 -25z m-3689 -27 c3 -8 -1 -12 -9 -9 -7 2 -15 10 -17 17 -3 8 1 12 9 9 7
-2 15 -10 17 -17z m42 -42 c0 -5 -4 -9 -10 -9 -5 0 -10 7 -10 16 0 8 5 12 10
9 6 -3 10 -10 10 -16z m40 -19 c0 -5 -7 -10 -15 -10 -8 0 -15 5 -15 10 0 6 7
10 15 10 8 0 15 -4 15 -10z m6285 1 c3 -5 1 -12 -5 -16 -5 -3 -10 1 -10 9 0
18 6 21 15 7z m-244 -22 c-23 -21 -91 -34 -91 -17 0 4 9 8 20 8 10 0 25 7 32
15 7 8 24 14 37 15 l25 0 -23 -21z m-2462 -16 c0 -5 -4 -17 -9 -28 -8 -18 -9
-17 -9 8 -1 15 4 27 9 27 6 0 10 -3 9 -7z m146 -3 c-3 -5 -12 -10 -18 -10 -7
0 -6 4 3 10 19 12 23 12 15 0z m1072 -6 c-3 -3 -12 -4 -19 -1 -8 3 -5 6 6 6
11 1 17 -2 13 -5z m1373 -33 c-10 -20 -30 -29 -30 -14 0 10 33 44 37 39 3 -2
0 -14 -7 -25z m-1390 9 c0 -5 -4 -10 -10 -10 -5 0 -10 5 -10 10 0 6 5 10 10
10 6 0 10 -4 10 -10z m1170 0 c0 -5 -7 -10 -15 -10 -8 0 -15 5 -15 10 0 6 7
10 15 10 8 0 15 -4 15 -10z m-6110 -10 c0 -5 -7 -10 -15 -10 -8 0 -15 5 -15
10 0 6 7 10 15 10 8 0 15 -4 15 -10z m4750 -30 c-7 -13 -20 -20 -38 -19 -27 2
-27 2 -2 6 14 3 29 11 33 19 13 22 19 16 7 -6z m280 10 c0 -5 -5 -10 -11 -10
-5 0 -7 5 -4 10 3 6 8 10 11 10 2 0 4 -4 4 -10z m497 -4 c0 -7 -9 -19 -19 -25
-18 -11 -18 -11 -2 14 19 29 21 30 21 11z m463 4 c0 -5 -7 -10 -16 -10 -8 0
-12 5 -9 10 3 6 10 10 16 10 5 0 9 -4 9 -10z m-1830 -13 c0 -8 -7 -14 -15 -14
-16 0 -19 9 -8 20 11 11 23 8 23 -6z m1275 -7 c-20 -22 -35 -26 -35 -10 0 6 7
10 16 10 8 0 12 5 9 10 -3 6 2 10 11 10 16 0 16 -1 -1 -20z m243 11 c11 -7 11
-9 -1 -14 -16 -6 -27 0 -27 15 0 10 11 10 28 -1z m-661 -17 c-3 -3 -12 -4 -19
-1 -8 3 -5 6 6 6 11 1 17 -2 13 -5z m830 0 c-3 -3 -12 -4 -19 -1 -8 3 -5 6 6
6 11 1 17 -2 13 -5z m120 0 c-3 -3 -12 -4 -19 -1 -8 3 -5 6 6 6 11 1 17 -2 13
-5z m-1362 -14 c3 -5 1 -10 -4 -10 -6 0 -11 5 -11 10 0 6 2 10 4 10 3 0 8 -4
11 -10z m613 -2 c-6 -18 -25 -21 -25 -3 0 8 7 15 15 15 7 0 12 -5 10 -12z
m822 4 c0 -11 -41 -44 -48 -38 -3 3 3 15 13 26 18 20 35 26 35 12z m-1985 -12
c3 -5 -3 -10 -15 -10 -12 0 -18 5 -15 10 3 6 10 10 15 10 5 0 12 -4 15 -10z
m80 0 c3 -5 1 -10 -4 -10 -6 0 -11 5 -11 10 0 6 2 10 4 10 3 0 8 -4 11 -10z
m575 0 c0 -5 -4 -10 -9 -10 -6 0 -13 5 -16 10 -3 6 1 10 9 10 9 0 16 -4 16
-10z m1114 -2 c-3 -4 -17 -8 -32 -7 -23 0 -24 2 -7 8 25 10 45 10 39 -1z
m-5621 -20 c9 0 17 -3 17 -9 0 -5 -7 -9 -15 -9 -8 0 -15 -6 -15 -12 0 -9 -3
-9 -8 -2 -4 6 -15 13 -24 17 -27 10 -22 30 5 21 12 -4 30 -7 40 -6z m4390 4
c-7 -4 -10 -19 -8 -35 4 -21 2 -25 -10 -21 -18 7 -18 6 -5 38 5 14 15 26 22
26 10 0 10 -2 1 -8z m594 -8 c-3 -3 -12 -4 -19 -1 -8 3 -5 6 6 6 11 1 17 -2
13 -5z m153 -4 c0 -5 -4 -10 -10 -10 -5 0 -10 5 -10 10 0 6 5 10 10 10 6 0 10
-4 10 -10z m-1367 -20 c3 -11 1 -23 -4 -26 -5 -3 -9 6 -9 20 0 31 6 34 13 6z
m1617 12 c0 -13 -39 -46 -46 -40 -3 4 3 16 13 27 18 22 33 27 33 13z m-920 -7
c0 -2 -5 -16 -12 -30 -13 -30 -28 -34 -21 -5 3 11 10 20 15 20 5 0 6 5 3 10
-3 6 -1 10 4 10 6 0 11 -2 11 -5z m980 -5 c0 -5 -4 -10 -10 -10 -5 0 -10 5
-10 10 0 6 5 10 10 10 6 0 10 -4 10 -10z m-1597 -20 c-3 -11 -9 -20 -14 -20
-4 0 -7 9 -6 20 1 11 7 20 13 20 7 0 10 -8 7 -20z m213 -2 c-3 -13 -5 -26 -5
-29 -1 -4 -7 -9 -15 -12 -14 -5 -15 31 -1 52 11 19 25 12 21 -11z m1051 16
c-3 -3 -12 -4 -19 -1 -8 3 -5 6 6 6 11 1 17 -2 13 -5z m-627 -44 c0 -5 -4 -10
-10 -10 -5 0 -10 5 -10 10 0 6 5 10 10 10 6 0 10 -4 10 -10z m-4720 -44 c0
-11 -19 -15 -25 -6 -3 5 1 10 9 10 9 0 16 -2 16 -4z m250 -26 c0 -5 -2 -10 -4
-10 -3 0 -8 5 -11 10 -3 6 -1 10 4 10 6 0 11 -4 11 -10z m-134 -33 c4 -6 4 -9
-1 -5 -4 4 -14 3 -22 -3 -8 -8 -13 -8 -13 -1 0 6 -3 18 -7 27 -5 15 -3 16 15
6 11 -6 24 -17 28 -24z m1944 11 c29 -31 20 -43 -35 -46 -67 -4 -89 6 -50 23
29 13 29 14 8 20 -36 11 -27 25 17 25 28 0 45 -6 60 -22z m1275 12 c4 -6 -1
-7 -11 -3 -11 4 -15 2 -11 -4 6 -10 -93 -83 -113 -83 -5 0 -10 -4 -10 -10 0
-5 -5 -10 -11 -10 -6 0 -25 -11 -43 -25 -18 -14 -38 -25 -44 -25 -7 0 -12 -4
-12 -10 0 -5 -7 -10 -15 -10 -8 0 -15 -4 -15 -10 0 -5 -7 -10 -15 -10 -8 0
-15 -3 -15 -7 0 -13 -61 -43 -72 -36 -6 3 -8 1 -4 -5 3 -6 2 -13 -3 -16 -12
-8 -41 4 -41 16 0 6 8 4 17 -3 9 -8 14 -9 10 -3 -7 11 28 46 37 37 3 -3 8 2
12 11 3 9 10 13 15 11 4 -3 17 3 29 15 11 11 22 20 25 20 8 0 79 34 90 43 24
20 181 126 187 126 4 1 10 -3 13 -9z m-3530 -20 c-3 -5 -13 -10 -21 -10 -8 0
-12 5 -9 10 3 6 13 10 21 10 8 0 12 -4 9 -10z m3958 -2 c33 -17 237 -198 237
-210 0 -10 -29 12 -125 97 -116 103 -122 107 -129 88 -6 -14 -9 -15 -16 -4 -8
13 -3 41 7 41 2 0 14 -5 26 -12z m-3918 -18 c-3 -5 -13 -10 -21 -10 -8 0 -12
5 -9 10 3 6 13 10 21 10 8 0 12 -4 9 -10z m105 0 c0 -5 -4 -10 -10 -10 -5 0
-10 5 -10 10 0 6 5 10 10 10 6 0 10 -4 10 -10z m260 -21 c0 -6 -4 -7 -10 -4
-5 3 -10 11 -10 16 0 6 5 7 10 4 6 -3 10 -11 10 -16z m3510 14 c0 -17 -19 -35
-29 -29 -6 4 -11 0 -11 -8 0 -10 -9 -16 -22 -16 -12 0 -18 -3 -15 -7 9 -8 -74
-64 -85 -57 -17 10 -7 23 45 55 28 18 54 36 57 40 3 3 13 5 22 4 11 -2 15 2
11 11 -3 8 1 14 11 14 9 0 16 -3 16 -7z m630 -7 c0 -3 -4 -8 -10 -11 -5 -3
-10 -1 -10 4 0 6 5 11 10 11 6 0 10 -2 10 -4z m-2315 -46 c0 -22 -5 -25 -39
-28 -21 -2 -43 1 -49 7 -8 8 1 11 31 11 23 0 42 5 42 10 0 6 -16 10 -35 10
-19 0 -35 4 -35 10 0 5 19 9 43 7 38 -2 42 -5 42 -27z m1405 -2 c0 -12 -6 -9
-26 13 -19 22 -19 22 4 8 12 -8 22 -17 22 -21z m-3710 18 c0 -3 -4 -8 -10 -11
-5 -3 -10 -1 -10 4 0 6 5 11 10 11 6 0 10 -2 10 -4z m3770 -21 c13 -14 21 -25
18 -25 -2 0 -15 11 -28 25 -13 14 -21 25 -18 25 2 0 15 -11 28 -25z m-3853 9
c-3 -3 -12 -4 -19 -1 -8 3 -5 6 6 6 11 1 17 -2 13 -5z m113 -14 c0 -5 -4 -10
-10 -10 -5 0 -10 5 -10 10 0 6 5 10 10 10 6 0 10 -4 10 -10z m3735 -38 c-7 -7
-45 29 -45 41 0 6 11 0 25 -13 14 -13 23 -26 20 -28z m-4055 28 c0 -5 -4 -10
-10 -10 -5 0 -10 5 -10 10 0 6 5 10 10 10 6 0 10 -4 10 -10z m237 4 c-3 -3
-12 -4 -19 -1 -8 3 -5 6 6 6 11 1 17 -2 13 -5z m-197 -24 c0 -5 -4 -10 -10
-10 -5 0 -10 5 -10 10 0 6 5 10 10 10 6 0 10 -4 10 -10z m2537 -12 c6 -7 10
-35 9 -63 l-2 -50 -42 -3 c-25 -2 -42 1 -42 7 0 6 17 11 37 11 41 0 41 6 -1
14 -37 7 -46 16 -16 16 23 0 23 0 -5 26 -26 24 -26 26 -9 39 24 18 58 19 71 3z
m1964 -25 c13 -16 12 -17 -3 -4 -10 7 -18 15 -18 17 0 8 8 3 21 -13z m1044
-23 c27 -11 14 -15 -110 -33 -99 -14 -170 -40 -245 -89 l-35 -22 34 34 c19 19
38 36 43 36 4 1 10 2 13 3 3 0 8 1 12 0 3 0 10 6 14 13 8 15 80 40 159 56 57
12 90 13 115 2z m93 -25 c3 -3 -7 -5 -21 -5 -15 0 -27 4 -27 9 0 10 38 7 48
-4z m-1038 -79 c0 -5 -16 5 -35 24 -19 19 -35 38 -35 44 0 5 16 -5 35 -24 19
-19 35 -38 35 -44z m1100 64 c0 -5 -5 -10 -11 -10 -5 0 -7 5 -4 10 3 6 8 10
11 10 2 0 4 -4 4 -10z m-3160 -62 c0 -4 -12 -8 -27 -10 -32 -4 -41 -23 -12
-25 12 -1 27 -7 32 -12 8 -8 -6 -11 -45 -11 -38 0 -62 5 -72 16 -18 17 -21 44
-6 44 6 0 10 -8 10 -18 0 -11 7 -18 20 -18 14 0 19 5 15 15 -3 8 0 18 7 22 14
9 78 7 78 -3z m2135 -48 c4 0 0 10 -11 22 -10 12 0 7 24 -12 44 -35 52 -50 26
-50 -9 0 -13 5 -9 13 3 6 0 3 -7 -8 -7 -11 -28 -33 -45 -50 -18 -18 -33 -38
-34 -46 0 -9 -2 -10 -5 -2 -3 7 -12 9 -20 6 -7 -3 -12 -9 -9 -13 3 -4 -7 -11
-20 -14 -14 -4 -23 -11 -20 -16 4 -6 12 -7 18 -3 7 4 17 8 22 8 20 2 70 18 81
27 7 5 21 4 35 -1 15 -6 18 -10 9 -12 -8 -1 1 -5 20 -10 25 -5 17 -6 -26 -2
-34 2 -70 0 -80 -5 -38 -20 -109 -47 -116 -45 -5 2 -8 0 -8 -3 0 -17 26 -47
84 -98 59 -51 77 -62 110 -65 4 -1 5 -9 1 -18 -4 -10 -8 -25 -9 -33 -2 -8 -6
-14 -10 -12 -4 2 -13 -4 -20 -14 -8 -11 -18 -14 -26 -9 -8 5 -11 4 -6 -3 3 -6
-8 -21 -26 -33 -30 -20 -31 -21 -18 -3 8 11 3 7 -12 -9 -17 -19 -31 -26 -40
-22 -7 5 -10 5 -6 0 9 -10 -10 -35 -26 -35 -6 0 -4 5 4 11 13 9 13 10 0 6 -8
-2 -14 -10 -12 -17 1 -6 -7 -14 -18 -17 -11 -3 -20 -9 -20 -14 0 -5 -8 -6 -17
-2 -10 3 -15 3 -11 -2 9 -10 -10 -35 -26 -35 -6 0 -4 5 4 11 13 9 13 10 0 6
-8 -2 -14 -10 -12 -17 1 -6 -7 -14 -18 -17 -11 -3 -20 -9 -20 -14 0 -5 -7 -5
-17 -2 -10 4 -14 2 -10 -5 8 -12 -46 -55 -56 -45 -4 3 -9 -2 -13 -11 -3 -9
-10 -13 -15 -10 -5 2 -17 0 -27 -5 -16 -8 -27 -1 -67 39 -27 27 -53 46 -59 43
-6 -3 -8 -2 -3 2 4 5 -9 25 -28 45 -25 25 -31 37 -20 37 9 0 25 -13 36 -29 11
-15 25 -26 30 -22 5 3 33 -6 61 -21 l50 -26 102 67 c55 37 110 75 121 85 11
10 26 19 33 21 8 2 28 16 45 32 18 16 46 35 63 42 32 14 52 58 31 71 -6 4 -7
1 -2 -8 5 -8 4 -11 -1 -6 -5 5 -9 13 -9 18 0 5 -3 8 -6 7 -11 -4 -49 34 -44
43 3 4 -13 23 -36 41 -58 47 -100 90 -94 97 4 3 14 6 24 6 11 0 36 16 57 35
22 19 52 41 67 48 15 6 25 17 22 22 -4 6 -3 9 2 8 10 -4 46 22 58 41 6 11 4
13 -9 8 -9 -4 -14 -3 -11 2 3 5 1 12 -5 16 -5 3 -10 14 -10 22 0 13 6 11 28
-10 15 -15 32 -27 37 -27z m1308 -19 c48 -49 91 -117 82 -131 -2 -4 2 -13 10
-20 8 -7 15 -17 15 -23 0 -6 -11 0 -25 13 -14 13 -25 29 -25 35 0 6 -38 49
-85 94 -47 46 -85 87 -85 91 0 21 73 -18 113 -59z m-2477 -25 c11 -3 36 -20
55 -37 19 -17 45 -35 58 -40 23 -9 23 -10 5 -23 -14 -11 -21 -11 -26 -3 -6 9
-8 8 -8 -1 0 -7 -4 -10 -10 -7 -6 4 -7 -1 -3 -10 4 -12 1 -16 -13 -14 -11 2
-36 -7 -57 -20 -21 -13 -41 -21 -44 -17 -4 3 0 6 7 6 7 0 11 3 7 6 -7 8 24 44
39 44 6 0 17 7 24 15 11 13 10 14 -6 8 -10 -4 -34 -15 -51 -26 -36 -21 -46
-10 -12 13 20 14 70 58 61 53 -3 -1 -12 6 -21 15 -10 11 -12 12 -6 2 9 -13 8
-13 -7 -1 -10 7 -16 17 -13 21 6 9 -13 25 -30 25 -5 0 -10 5 -10 10 0 6 -4 17
-9 25 -5 8 4 3 20 -11 16 -15 38 -30 50 -33z m-973 -6 c-1 -59 -2 -60 -38 -60
-19 0 -35 -4 -35 -10 0 -5 11 -10 24 -10 33 0 53 -25 36 -45 -18 -22 -67 -19
-80 4 -6 12 -6 22 -1 25 5 4 8 30 6 59 -1 28 0 56 2 60 3 4 23 7 46 5 37 -3
41 -6 40 -28z m1077 -40 c0 -5 -2 -10 -4 -10 -3 0 -8 5 -11 10 -3 6 -1 10 4
10 6 0 11 -4 11 -10z m-684 -28 c12 -9 42 -48 68 -87 34 -51 46 -80 47 -110 1
-23 4 -30 6 -17 2 12 7 22 11 22 11 0 5 126 -7 148 -15 29 -14 55 2 45 6 -4
17 -8 22 -8 6 0 15 -16 21 -35 11 -32 12 -33 15 -10 4 23 8 20 48 -34 24 -32
50 -79 57 -102 14 -49 22 -272 10 -294 -4 -8 1 -4 12 10 26 32 66 119 90 197
l19 62 -24 24 c-18 18 -20 24 -9 24 9 0 14 -3 11 -5 -3 -3 7 -19 22 -35 16
-17 21 -26 13 -22 -12 7 -12 5 1 -11 18 -21 39 -106 39 -158 0 -39 -32 -149
-93 -317 -24 -68 -50 -155 -57 -194 -7 -38 -28 -111 -46 -162 -18 -50 -52
-162 -74 -249 -23 -86 -46 -164 -50 -173 -5 -9 -12 -29 -15 -46 l-7 -30 -13
25 c-9 16 -10 32 -4 48 14 37 11 49 -21 82 l-31 31 -77 -31 c-211 -87 -315
-113 -262 -65 31 28 24 37 -16 20 -49 -20 -57 -19 -48 8 l6 22 -23 -21 c-13
-12 -34 -27 -46 -33 -25 -13 -113 -15 -113 -3 0 5 18 19 41 31 22 13 38 25 35
28 -3 3 6 19 19 35 36 43 31 48 -27 26 -65 -25 -202 -38 -176 -17 15 12 44
106 35 115 -1 2 -15 -8 -30 -22 -15 -14 -27 -21 -27 -17 0 4 -4 3 -8 -2 -20
-28 -62 -35 -119 -20 -32 8 -65 15 -75 15 -10 0 -35 16 -56 35 l-37 34 30 1
c39 0 72 20 35 20 -32 1 -108 35 -137 62 -17 16 -20 25 -12 39 9 17 12 18 32
5 42 -28 115 -40 158 -27 22 7 37 16 34 21 -3 6 0 7 7 5 8 -3 27 8 43 26 l30
31 -28 24 c-21 18 -27 30 -21 42 4 9 6 25 5 35 -1 10 3 25 9 33 10 11 9 14 -3
14 -8 0 -18 7 -21 16 -7 19 10 44 30 44 12 0 11 5 -2 26 -26 39 -9 46 104 42
79 -2 98 0 90 10 -7 7 -39 12 -87 13 -53 0 -68 3 -50 9 40 12 199 23 199 13 0
-4 -7 -17 -15 -27 -8 -11 -15 -30 -15 -43 0 -29 42 -73 69 -73 22 0 67 55 102
122 10 20 27 38 36 41 10 2 51 -14 91 -35 l73 -39 -27 52 c-14 29 -32 59 -40
67 -18 17 -18 21 2 43 16 17 18 17 58 -3 22 -11 70 -41 105 -66 l65 -46 -46
65 -45 64 17 53 c14 46 15 65 4 145 l-11 92 38 42 c44 48 46 55 22 74 -16 13
-17 12 -4 -3 31 -40 -45 -4 -91 43 -22 22 -23 52 -3 69 13 11 18 10 28 -3 13
-17 107 -35 107 -20 0 5 -16 9 -36 10 -45 1 -57 13 -48 47 7 28 31 34 54 14 7
-7 3 3 -8 23 -32 53 -27 65 14 31z m-266 -53 c-10 -17 -14 -18 -27 -8 -13 12
-13 14 4 20 30 12 34 10 23 -12z m2277 15 c-3 -3 -12 -4 -19 -1 -8 3 -5 6 6 6
11 1 17 -2 13 -5z m-112 -14 c3 -5 1 -10 -4 -10 -6 0 -11 5 -11 10 0 6 2 10 4
10 3 0 8 -4 11 -10z m-1275 -20 c0 -5 -5 -10 -11 -10 -5 0 -7 5 -4 10 3 6 8
10 11 10 2 0 4 -4 4 -10z m1438 -15 c-3 -3 -13 -2 -22 1 -14 5 -15 9 -4 15 13
8 36 -6 26 -16z m-2463 -5 c4 -6 -7 -10 -24 -10 -17 0 -31 -4 -31 -10 0 -5 11
-10 25 -10 15 0 25 -6 25 -15 0 -9 -6 -12 -15 -9 -8 4 -15 2 -15 -4 0 -5 7
-12 15 -16 17 -6 21 -36 5 -36 -5 0 -10 5 -10 12 0 6 -7 4 -18 -5 -23 -21 -38
-21 -46 -1 -10 27 -7 37 8 25 10 -9 16 -8 25 3 10 12 8 15 -11 18 -23 3 -34
27 -24 54 6 16 81 20 91 4z m2070 -80 c38 -38 67 -70 64 -70 -2 0 -36 32 -74
70 -38 39 -67 70 -64 70 2 0 36 -31 74 -70z m1505 60 c0 -5 -2 -10 -4 -10 -3
0 -8 5 -11 10 -3 6 -1 10 4 10 6 0 11 -4 11 -10z m-2666 -142 c16 -18 43 -49
60 -68 17 -19 -4 -1 -47 40 -42 41 -77 76 -77 78 0 9 39 -21 64 -50z m-549 12
c27 -30 12 -34 -15 -5 -13 14 -19 25 -13 25 5 0 18 -9 28 -20z m620 -120 c71
-71 127 -130 125 -130 -3 0 -64 59 -135 130 -71 72 -127 130 -125 130 3 0 64
-58 135 -130z m-661 105 c3 -8 1 -15 -4 -15 -6 0 -10 7 -10 15 0 8 2 15 4 15
2 0 6 -7 10 -15z m-429 -25 c-3 -5 24 -8 59 -9 53 0 65 3 69 17 4 16 4 16 12
0 4 -10 4 -25 1 -34 -5 -14 -17 -16 -74 -10 -67 7 -92 21 -92 54 0 12 3 12 15
2 8 -7 13 -16 10 -20z m2300 -21 c-10 -15 -25 -10 -19 6 4 8 10 12 15 9 5 -3
7 -10 4 -15z m355 -19 c8 -5 12 -10 8 -10 -15 0 118 -133 164 -164 35 -24 44
-35 38 -46 -8 -13 -10 -12 -10 3 0 20 -25 23 -34 5 -3 -7 -4 -4 -1 7 3 15 -9
29 -46 55 -27 19 -53 34 -58 33 -11 -3 -51 49 -75 95 -17 33 -13 39 14 22z
m1124 -5 c3 -8 1 -15 -4 -15 -6 0 -10 7 -10 15 0 8 2 15 4 15 2 0 6 -7 10 -15z
m-4 -43 c0 -4 -9 -14 -19 -22 -11 -7 -18 -17 -16 -20 2 -4 -2 -7 -9 -7 -7 0
-13 6 -13 14 0 7 4 13 9 13 5 0 6 5 2 12 -4 6 -3 8 4 4 6 -3 13 -2 17 4 7 12
25 13 25 2z m-2707 -96 c3 -52 1 -83 -4 -75 -8 13 -13 177 -5 168 2 -2 6 -44
9 -93z m137 69 c13 -14 21 -25 18 -25 -2 0 -15 11 -28 25 -13 14 -21 25 -18
25 2 0 15 -11 28 -25z m375 -35 c-3 -5 -12 -10 -18 -10 -7 0 -6 4 3 10 19 12
23 12 15 0z m-35 -18 c0 -7 -62 -48 -67 -44 -8 6 -23 1 -19 -6 3 -5 -9 -21
-25 -36 -22 -21 -35 -27 -54 -22 -15 4 -25 2 -25 -4 0 -6 4 -9 9 -5 5 3 13 0
17 -7 4 -7 4 -10 -1 -6 -4 4 -16 -3 -27 -15 -11 -12 -17 -16 -13 -9 3 6 1 12
-4 12 -6 0 -11 5 -11 12 0 7 -12 26 -27 42 l-28 31 32 -29 33 -29 35 37 c19
20 43 39 54 41 11 2 29 8 40 14 14 8 20 8 23 0 2 -6 14 -2 28 10 28 23 30 24
30 13z m2140 -26 c0 -2 -8 -10 -17 -17 -16 -13 -17 -12 -4 4 13 16 21 21 21
13z m-3327 -37 c22 -10 53 -56 44 -65 -2 -2 -21 14 -42 36 -41 42 -41 47 -2
29z m3272 -10 c-4 -5 -13 -9 -21 -9 -16 0 -19 -16 -5 -24 5 -4 12 0 15 6 3 7
3 3 0 -9 -3 -12 2 -33 12 -48 20 -31 15 -32 -21 -1 -15 13 -25 28 -22 33 3 5
0 10 -8 10 -8 0 -12 -4 -9 -9 3 -4 -1 -8 -9 -8 -13 0 -31 -33 -28 -52 1 -5 -4
-8 -10 -8 -6 0 -8 -7 -5 -16 3 -8 2 -12 -4 -9 -6 3 -10 -1 -10 -10 0 -9 4 -13
10 -10 6 3 7 -1 4 -9 -3 -9 -10 -13 -15 -10 -5 3 -14 -8 -20 -25 -6 -17 -15
-31 -20 -31 -12 0 -12 -4 11 60 11 30 25 57 30 58 6 2 10 7 10 12 0 8 -31 7
-115 -5 -22 -3 -57 -8 -78 -11 -21 -2 -41 -5 -45 -5 -22 -4 -103 4 -84 8 12 2
20 7 18 11 -2 4 34 8 81 9 72 2 97 8 164 38 44 19 88 35 97 35 9 0 28 12 41
25 21 23 49 26 36 4z m49 -18 c4 -5 -3 -7 -14 -4 -23 6 -26 13 -6 13 8 0 17
-4 20 -9z m-780 -16 c-4 -8 -10 -12 -15 -9 -11 6 -2 24 11 24 5 0 7 -7 4 -15z
m806 -21 c0 -8 -4 -12 -10 -9 -5 3 -10 10 -10 16 0 5 5 9 10 9 6 0 10 -7 10
-16z m-743 -29 c0 -8 -4 -12 -9 -9 -5 3 -6 10 -3 15 9 13 12 11 12 -6z m43 -4
c0 -6 -4 -12 -8 -15 -5 -3 -9 1 -9 9 0 8 4 15 9 15 4 0 8 -4 8 -9z m690 5 c0
-2 -7 -7 -16 -10 -8 -3 -12 -2 -9 4 6 10 25 14 25 6z m-100 -13 c-1 -5 -7 -19
-15 -33 -13 -24 -14 -24 -12 -2 1 12 5 22 10 22 4 0 5 5 2 10 -3 6 -1 10 4 10
6 0 11 -3 11 -7z m-455 -13 c-3 -5 -16 -10 -28 -9 -21 0 -21 1 -2 9 28 12 37
12 30 0z m525 -36 c0 -8 -4 -14 -10 -14 -5 0 -10 9 -10 21 0 11 5 17 10 14 6
-3 10 -13 10 -21z m-1055 -189 c19 -112 34 -231 37 -295 l3 -75 -63 -3 c-59
-3 -63 -2 -58 16 23 72 37 182 43 347 l7 190 13 -75 c7 -41 15 -88 18 -105z
m1072 147 c7 -4 -6 -8 -30 -9 -34 0 -37 1 -17 7 34 11 33 11 47 2z m-4099 -27
c41 -17 42 -18 26 -36 -25 -28 -38 -24 -69 23 -15 22 -21 39 -14 36 8 -3 33
-14 57 -23z m4044 -39 c10 -7 15 -16 12 -19 -7 -7 -44 14 -44 25 0 12 13 9 32
-6z m-4078 -57 c-16 -17 -18 -17 -60 19 -24 20 -44 37 -44 38 0 2 27 -7 61
-18 57 -19 59 -21 43 -39z m4105 7 c7 -8 8 -17 3 -20 -6 -3 -12 3 -15 14 -6
24 -4 25 12 6z m-865 -93 c45 -139 71 -305 51 -325 -6 -6 -114 8 -122 16 -3 3
2 47 10 98 9 51 19 130 22 176 4 45 11 82 15 82 5 0 15 -21 24 -47z m916 33
c0 -3 -4 -8 -10 -11 -5 -3 -10 -1 -10 4 0 6 5 11 10 11 6 0 10 -2 10 -4z
m-3990 -71 c0 -27 -3 -33 -16 -28 -13 5 -13 7 -2 14 10 7 10 9 1 9 -13 0 -18
32 -7 43 13 13 24 -5 24 -38z m3993 10 c-7 -21 -12 -19 -10 4 0 11 5 18 9 15
4 -3 5 -11 1 -19z m-1919 -86 c13 -46 27 -92 31 -102 7 -17 3 -17 -46 -11 -30
4 -56 8 -58 10 -4 4 16 118 30 169 7 22 14 35 16 29 2 -6 14 -49 27 -95z
m1836 86 c7 -8 9 -15 6 -15 -4 0 -14 7 -22 15 -9 8 -11 15 -6 15 5 0 15 -7 22
-15z m-1948 -183 c-13 -2 -25 -2 -27 0 -2 2 2 41 8 88 l12 85 15 -85 16 -85
-24 -3z m2014 132 c40 -6 59 -27 46 -50 -9 -16 -11 -15 -28 4 -19 23 -54 30
-54 12 0 -6 -11 -3 -24 5 -22 15 -24 14 -29 -6 -6 -24 -30 -21 -35 5 -9 44 6
48 124 30z m-4317 -10 c15 -11 19 -20 13 -26 -12 -12 -35 -1 -27 12 3 5 -3 13
-12 19 -10 6 -13 11 -8 11 6 0 21 -7 34 -16z m2115 -36 c-11 -69 -15 -78 -29
-78 -8 0 -15 4 -15 10 0 10 42 100 47 100 1 0 0 -15 -3 -32z m-1819 12 c-3 -5
-16 -10 -28 -9 -21 0 -21 1 -2 9 28 12 37 12 30 0z m3308 -153 l46 -97 -27 6
c-15 4 -28 8 -30 10 -12 9 -62 184 -61 213 l0 36 14 -35 c7 -19 33 -79 58
-133z m-3252 121 c11 -21 11 -22 -4 -9 -10 7 -17 17 -17 22 0 15 9 10 21 -13z
m-27 -14 c8 -21 8 -24 -3 -24 -5 0 -11 9 -14 20 -6 24 8 27 17 4z m-14 -41
c16 -19 0 -16 -22 4 -10 9 -18 23 -18 32 1 13 3 12 15 -4 8 -11 19 -26 25 -32z
m1860 5 c0 -5 -7 -8 -15 -8 -15 0 -20 21 -8 33 7 7 23 -11 23 -25z m2165 5
c32 -24 31 -31 -7 -48 -18 -8 -28 -14 -22 -15 6 0 10 -10 9 -22 -1 -17 -9 -24
-30 -26 l-28 -4 24 -12 c33 -16 37 -46 8 -53 -22 -6 -22 -6 -2 -14 13 -5 20
-16 19 -31 -1 -18 -8 -24 -30 -26 -36 -4 -76 5 -76 18 0 6 12 10 28 11 15 0
20 3 12 6 -8 2 -21 7 -29 9 -11 3 -11 8 -3 16 8 8 8 17 0 31 -8 16 -7 23 8 34
10 7 12 13 6 13 -7 0 -12 7 -12 16 0 13 7 15 38 11 l37 -5 -37 11 c-21 6 -38
14 -38 19 0 4 17 9 38 9 26 1 29 3 12 6 -51 8 -56 14 -25 28 26 12 27 13 8 14
-24 1 -37 14 -25 26 12 12 91 -3 117 -22z m-1816 -41 c1 -7 -3 -10 -9 -7 -5 3
-10 18 -9 33 0 24 1 25 9 7 5 -11 9 -26 9 -33z m807 -80 c-13 -13 -16 9 -9 59
l8 54 3 -54 c2 -29 1 -56 -2 -59z m-501 28 c14 -27 25 -58 25 -69 0 -11 5 -23
10 -26 6 -4 10 7 10 24 0 36 6 38 34 14 20 -18 20 -18 3 9 -31 50 -17 51 20 2
35 -45 38 -55 42 -128 3 -79 3 -79 -20 -72 -13 3 -56 12 -96 18 -58 10 -73 16
-77 33 -8 27 -7 204 0 232 8 30 19 22 49 -37z m699 -16 c10 -27 7 -34 -19 -34
-23 0 -24 2 -13 25 13 29 23 32 32 9z m-1414 -49 c0 -37 29 -116 56 -152 l24
-32 -52 15 c-72 21 -100 57 -117 152 l-8 42 48 0 c45 0 49 -2 49 -25z m2814 4
c-3 -5 -10 -7 -15 -3 -5 3 -7 10 -3 15 3 5 10 7 15 3 5 -3 7 -10 3 -15z
m-2344 -33 c5 -13 22 -46 39 -72 28 -46 29 -49 11 -61 -11 -8 -22 -30 -26 -50
-9 -49 19 -73 84 -73 42 0 50 -4 89 -47 47 -52 46 -53 28 33 -6 25 -4 26 27
21 18 -3 58 -13 89 -22 68 -21 106 -14 115 19 6 25 -17 81 -36 88 -6 2 2 16
18 31 l28 27 42 -36 c46 -39 48 -36 28 48 -12 50 -12 57 2 63 24 9 30 -5 33
-70 1 -44 7 -66 22 -82 l20 -23 12 23 c9 17 8 24 -3 32 -23 18 -4 42 35 43 47
2 73 -20 64 -53 -3 -14 -9 -24 -13 -22 -3 1 -18 -9 -32 -22 -29 -27 -37 -10
-9 21 9 10 13 21 9 25 -7 7 -39 -34 -42 -54 -2 -13 72 -53 99 -53 11 0 17 8
17 21 0 14 5 19 13 16 10 -4 14 6 13 38 -1 63 10 71 80 53 48 -11 59 -18 64
-38 6 -22 9 -17 25 31 l18 56 38 -10 c35 -8 38 -12 32 -36 -14 -59 -58 -125
-88 -134 -68 -19 -75 -18 -102 10 -16 17 -24 21 -20 11 3 -10 0 -24 -8 -32
-18 -18 -19 -34 -3 -68 17 -36 46 -51 90 -50 20 1 39 -2 43 -7 11 -18 81 11
123 52 23 23 42 39 42 35 0 -3 -17 -59 -38 -124 -44 -136 -84 -200 -165 -262
-73 -57 -132 -81 -197 -83 l-55 0 40 -19 c22 -10 49 -19 60 -19 36 -2 -32 -38
-155 -82 -63 -23 -121 -46 -127 -52 -7 -5 -13 -28 -13 -52 l0 -42 -207 -7
c-136 -5 -264 -16 -370 -32 -195 -29 -196 -29 -189 -6 3 9 8 35 10 57 3 22 10
56 16 75 5 19 10 60 10 91 l0 57 -63 41 c-65 42 -133 104 -92 84 11 -6 34 -13
50 -17 l30 -6 -27 15 c-37 21 -35 26 4 14 18 -5 53 -9 78 -9 l45 0 -55 31
c-99 56 -181 152 -255 299 -37 72 -38 80 -43 199 -4 103 -2 123 9 119 8 -3 15
-15 17 -29 8 -75 48 -149 73 -133 5 3 9 0 9 -5 0 -6 6 -11 13 -11 7 0 24 -11
39 -25 21 -19 32 -23 45 -16 10 5 35 17 55 26 22 9 45 29 53 45 9 17 20 30 25
30 6 0 10 11 10 25 0 17 5 25 18 25 10 0 27 6 38 14 17 13 21 12 37 -1 19 -17
24 -4 6 14 -7 7 -9 19 -6 27 8 19 53 21 60 4 2 -7 8 -1 12 15 7 27 25 38 25
14 0 -7 13 -28 30 -47 l30 -35 -20 59 c-24 71 -24 76 -5 76 9 0 20 -11 25 -24z
m-380 -46 c0 -5 -2 -10 -4 -10 -3 0 -8 5 -11 10 -3 6 -1 10 4 10 6 0 11 -4 11
-10z m74 4 c9 -3 16 -15 16 -25 0 -23 -8 -24 -32 -2 -30 27 -21 41 16 27z
m113 -10 c2 -6 -8 -16 -22 -22 -33 -15 -35 -15 -35 1 0 31 48 48 57 21z m1913
-39 c0 -5 -14 -10 -30 -11 -33 -1 -54 -13 -27 -15 10 -1 22 -3 27 -4 6 -1 15
-3 20 -4 25 -3 7 -21 -22 -23 l-33 -1 32 -4 c28 -4 31 -7 28 -31 -1 -15 -3
-35 -4 -46 -1 -16 -7 -18 -36 -13 -21 3 -33 2 -30 -4 4 -5 15 -9 25 -9 29 0
53 -29 39 -46 -6 -8 -19 -14 -28 -15 -10 0 -7 -4 9 -11 24 -11 24 -12 -15 -18
l-40 -7 33 -8 c54 -13 48 -26 -10 -23 -47 3 -53 5 -54 26 -1 13 5 29 12 37 11
11 11 15 -2 25 -13 11 -13 15 1 30 11 12 13 20 6 25 -11 6 -8 66 4 85 3 6 -5
14 -18 19 -29 11 -41 27 -34 45 6 16 147 17 147 1z m-2080 -20 c-7 -9 -15 -13
-18 -10 -3 2 1 11 8 20 7 9 15 13 18 10 3 -2 -1 -11 -8 -20z m35 -14 c-3 -6
-11 -11 -17 -11 -6 0 -6 6 2 15 14 17 26 13 15 -4z m26 -22 c-5 -13 -10 -19
-10 -12 -1 15 10 45 15 40 3 -2 0 -15 -5 -28z m1039 -78 c0 -6 -4 -13 -10 -16
-5 -3 -10 1 -10 9 0 9 5 16 10 16 6 0 10 -4 10 -9z m-2350 -41 c0 -16 -4 -32
-10 -35 -6 -4 -10 10 -10 35 0 25 4 39 10 35 6 -3 10 -19 10 -35z m5 -60 c3
-6 -1 -7 -9 -4 -18 7 -21 14 -7 14 6 0 13 -4 16 -10z m-1 -16 c8 -3 12 -12 9
-20 -3 -8 0 -21 6 -28 10 -11 9 -14 -3 -12 -22 3 -30 13 -33 41 -4 27 -3 28
21 19z m3236 -64 c0 -6 8 -5 19 2 15 9 23 9 35 -1 28 -24 19 -39 -22 -37 -20
1 -43 5 -50 10 -17 10 -15 36 3 36 8 0 15 -5 15 -10z m-3173 -80 c8 -12 9 -21
3 -25 -14 -9 -50 13 -50 30 0 22 33 18 47 -5z m3212 -35 c52 -7 53 -7 46 16
-7 21 -6 22 9 10 9 -7 16 -24 16 -38 0 -24 0 -24 -72 -17 -72 7 -98 19 -98 47
0 24 14 28 30 8 10 -12 34 -22 69 -26z m-2001 -509 l27 5 -22 -19 c-13 -11
-23 -25 -23 -32 0 -6 -6 -10 -12 -7 -7 2 -11 11 -9 18 2 8 4 25 4 39 -1 15 1
18 4 7 3 -13 11 -16 31 -11z m-48 -60 c0 -3 -4 -8 -10 -11 -5 -3 -10 -1 -10 4
0 6 5 11 10 11 6 0 10 -2 10 -4z m-20 -30 c0 -3 -4 -8 -10 -11 -5 -3 -10 -1
-10 4 0 6 5 11 10 11 6 0 10 -2 10 -4z m527 -596 c-1 -14 -4 -16 -14 -8 -16
13 -17 -4 -1 -20 10 -9 9 -16 -4 -28 -17 -17 -72 -29 -63 -14 3 5 12 7 20 3
17 -6 20 12 4 22 -12 8 30 52 45 47 4 -2 6 4 2 13 -3 9 -2 13 3 10 6 -3 9 -14
8 -25z m43 15 c0 -8 -4 -15 -10 -15 -5 0 -7 7 -4 15 4 8 8 15 10 15 2 0 4 -7
4 -15z m-125 -55 c-3 -5 -12 -10 -18 -10 -7 0 -6 4 3 10 19 12 23 12 15 0z
m-27 -51 c-20 -13 -28 -10 -21 8 4 10 2 14 -4 10 -10 -6 -11 1 -3 33 0 3 10
-6 21 -19 15 -19 17 -26 7 -32z m-68 27 c0 -3 -4 -8 -10 -11 -5 -3 -10 -1 -10
4 0 6 5 11 10 11 6 0 10 -2 10 -4z m-79 -29 c-10 -9 -11 -8 -5 6 3 10 9 15 12
12 3 -3 0 -11 -7 -18z m27 -34 c0 -16 7 -41 16 -57 8 -17 12 -41 9 -57 -4 -21
-1 -30 11 -35 9 -3 16 -10 16 -14 0 -5 -13 -2 -30 6 -16 9 -30 20 -30 25 0 6
5 7 10 4 7 -4 9 7 6 32 -7 59 -7 60 -17 33 -7 -20 -8 -18 -3 12 2 20 0 39 -5
43 -11 6 -4 35 9 35 4 0 7 -12 8 -27z m52 -8 c-7 -14 -19 -25 -27 -25 -19 0
-16 10 9 37 26 28 36 22 18 -12z m-130 4 c0 -6 -4 -7 -10 -4 -5 3 -10 11 -10
16 0 6 5 7 10 4 6 -3 10 -11 10 -16z m245 12 c3 -5 2 -12 -3 -15 -5 -3 -9 1
-9 9 0 17 3 19 12 6z m-68 -15 c-5 -13 18 -31 35 -28 12 3 4 -34 -11 -52 -13
-15 -16 -15 -33 4 -21 23 -38 20 -20 -3 11 -13 7 -27 -9 -27 -12 0 -20 31 -13
52 4 14 11 17 26 12 14 -4 18 -2 14 5 -7 12 1 51 11 51 3 0 3 -6 0 -14z m-135
-15 c0 -9 0 -24 -1 -35 0 -10 4 -25 10 -32 7 -8 13 -30 14 -49 2 -29 0 -33
-12 -23 -10 8 -13 22 -9 40 4 19 2 27 -5 22 -7 -4 -10 4 -8 22 2 16 -2 38 -9
50 -9 17 -8 21 4 21 7 0 15 -7 16 -16z m-82 -17 c0 -13 13 -19 34 -15 5 1 6
-5 3 -13 -6 -16 8 -32 16 -19 2 5 2 3 1 -4 -2 -6 2 -14 9 -16 9 -3 9 -8 0 -18
-18 -18 -16 -56 2 -63 8 -3 15 0 16 7 0 9 2 9 6 -1 2 -6 9 -10 14 -6 5 3 9 0
9 -6 0 -7 -7 -10 -15 -6 -10 3 -15 -1 -15 -12 -1 -16 -1 -16 -11 0 -5 9 -16
15 -23 12 -9 -3 -17 3 -21 16 -6 18 -9 19 -23 8 -13 -11 -15 -10 -9 5 3 9 2
17 -3 17 -6 0 -10 7 -10 16 0 8 -4 12 -10 9 -5 -3 -10 0 -11 7 0 10 -2 10 -6
0 -5 -13 -23 -7 -23 9 0 6 5 7 12 3 8 -5 9 -1 5 12 -7 18 -7 18 8 0 8 -11 15
-17 15 -13 0 4 9 3 20 -3 17 -9 20 -8 20 7 0 10 -8 30 -17 43 -22 31 -25 50
-7 43 8 -3 14 -11 14 -19z m-124 -60 c0 -5 5 -20 11 -34 23 -56 25 -70 9 -64
-9 3 -17 16 -18 28 0 11 -2 26 -3 31 -4 16 -5 24 -4 31 0 4 -5 11 -13 16 -10
8 -10 9 2 5 8 -2 15 -8 16 -13z m-91 -24 c3 -5 1 -10 -4 -10 -6 0 -11 5 -11
10 0 6 2 10 4 10 3 0 8 -4 11 -10z m389 -11 c-6 -11 -24 -2 -24 11 0 5 7 7 15
4 8 -4 12 -10 9 -15z m-262 -11 c-7 -7 -12 -8 -12 -2 0 14 12 26 19 19 2 -3
-1 -11 -7 -17z m-148 -20 c7 -5 4 -8 -6 -8 -12 0 -18 7 -17 23 0 15 2 17 6 7
3 -8 11 -18 17 -22z m167 -11 c-8 -8 -11 -5 -11 9 0 27 14 41 18 19 2 -9 -1
-22 -7 -28z m25 -12 c-24 -44 -27 -41 -13 13 7 28 14 39 21 32 7 -7 4 -22 -8
-45z m-119 13 c-3 12 -1 22 3 22 5 0 10 -17 12 -37 2 -26 8 -38 18 -38 9 0 15
-11 17 -29 2 -27 1 -27 -12 -10 -13 16 -16 17 -24 4 -7 -11 -4 -21 11 -37 16
-18 18 -27 11 -50 -11 -30 2 -87 17 -78 10 6 25 -14 16 -22 -9 -9 -46 28 -46
45 0 13 -2 12 -13 -2 -12 -16 -13 -13 -11 22 1 33 -1 40 -15 37 -12 -2 -17 5
-19 23 -1 20 1 23 8 12 8 -13 10 -13 14 0 7 18 3 47 -7 56 -14 14 -7 23 14 19
20 -4 20 -3 5 14 -9 9 -16 23 -16 29 0 7 -4 12 -10 12 -5 0 -7 7 -3 16 5 14 8
13 20 -7 14 -24 14 -24 10 -1z m-117 2 c0 -5 -2 -10 -4 -10 -3 0 -8 5 -11 10
-3 6 -1 10 4 10 6 0 11 -4 11 -10z m424 -5 c3 -9 0 -15 -9 -15 -9 0 -12 6 -9
15 4 8 7 15 9 15 2 0 5 -7 9 -15z m-154 -21 c0 -8 -4 -14 -10 -14 -5 0 -10 9
-10 21 0 11 5 17 10 14 6 -3 10 -13 10 -21z m-236 4 c-3 -4 -9 -8 -15 -8 -5 0
-9 4 -9 8 0 5 7 9 15 9 8 0 12 -4 9 -9z m44 -35 c6 -20 9 -39 7 -42 -3 -2 -5
1 -5 8 0 7 -4 9 -10 6 -6 -3 -10 4 -10 17 0 18 -2 20 -10 8 -5 -8 -7 -24 -4
-35 3 -11 2 -15 -3 -9 -4 6 -16 13 -25 17 -11 4 -15 12 -12 22 4 8 1 15 -7 15
-7 0 -9 3 -6 6 4 4 14 1 22 -6 13 -11 13 -15 3 -21 -11 -7 -11 -9 0 -9 7 0 18
14 23 30 14 40 23 38 37 -7z m233 16 c9 -11 20 -20 23 -20 20 3 28 0 22 -6
-11 -11 -30 -10 -38 2 -5 6 -12 5 -19 -5 -9 -13 -10 -12 -5 2 3 10 1 20 -4 23
-14 9 -12 -39 2 -53 6 -6 9 -14 7 -17 -11 -11 -31 45 -25 69 8 31 13 32 37 5z
m-109 -15 c16 -15 18 -15 24 -1 6 16 34 12 34 -5 0 -5 -4 -7 -8 -4 -5 3 -6 -9
-4 -26 3 -21 1 -29 -7 -24 -6 4 -12 1 -12 -6 -1 -7 -3 -20 -4 -28 -1 -8 -3
-21 -4 -28 0 -7 -6 -10 -12 -6 -6 3 -9 18 -6 32 7 35 -2 59 -15 40 -10 -13 -7
0 8 37 4 10 2 15 -6 13 -7 -2 -15 3 -17 10 -6 17 7 15 29 -4z m-132 -63 c0
-10 -7 -22 -16 -25 -8 -3 -13 -2 -9 3 3 5 2 11 -2 14 -5 2 -2 2 5 1 6 -2 12 3
12 11 0 8 2 15 5 15 3 0 5 -9 5 -19z m120 -31 c0 -11 -4 -20 -10 -20 -5 0 -10
9 -10 20 0 11 5 20 10 20 6 0 10 -9 10 -20z m94 -14 c-6 -16 -24 -13 -24 5 0
6 5 7 10 4 6 -3 10 -1 10 6 0 7 2 10 5 7 3 -3 3 -13 -1 -22z m-34 -27 c0 -11
-4 -17 -10 -14 -6 3 -7 -1 -4 -9 3 -9 1 -16 -5 -16 -6 0 -11 5 -11 11 0 5 -4
7 -10 4 -5 -3 -10 1 -10 10 0 9 4 14 9 11 5 -3 14 1 21 9 17 20 20 19 20 -6z
m-67 -11 c7 -25 0 -41 -14 -33 -12 8 -12 55 0 55 5 0 11 -10 14 -22z m-83 2
c0 -5 -2 -10 -4 -10 -3 0 -8 5 -11 10 -3 6 -1 10 4 10 6 0 11 -4 11 -10z m-16
-25 c3 -8 1 -15 -4 -15 -6 0 -10 7 -10 15 0 8 2 15 4 15 2 0 6 -7 10 -15z
m141 -35 c-3 -5 -12 -10 -18 -10 -7 0 -6 4 3 10 19 12 23 12 15 0z m-1700
-290 c4 -6 15 -8 25 -5 11 4 20 -1 24 -11 5 -14 4 -15 -8 -5 -10 8 -16 9 -21
1 -3 -5 -1 -10 5 -10 6 0 9 -4 6 -9 -6 -10 57 -81 73 -81 5 0 13 -9 16 -20 4
-11 10 -18 15 -15 4 2 10 -9 14 -26 5 -29 -17 -78 -36 -79 -4 0 -14 -7 -22
-16 -14 -14 -14 -18 -1 -45 9 -16 16 -32 18 -36 1 -5 5 -7 10 -6 4 2 7 -1 7
-6 0 -5 7 -16 15 -25 15 -14 11 -46 -6 -46 -5 0 -9 -5 -9 -10 0 -6 -9 -20 -19
-32 -11 -11 -17 -27 -14 -37 5 -12 3 -13 -6 -5 -10 9 -9 17 4 38 10 16 13 26
6 26 -14 0 -15 37 -1 45 13 8 -6 35 -25 35 -7 0 -15 9 -18 21 -4 16 -3 18 8 9
21 -18 37 -3 23 20 -9 14 -14 16 -20 7 -5 -8 -8 -5 -9 8 l0 20 -9 -20 c-8 -18
-9 -17 -9 8 -1 15 4 27 10 27 17 0 69 53 69 71 0 9 -6 19 -14 22 -8 3 -27 27
-42 54 -15 26 -38 65 -51 86 -24 37 -25 38 -44 21 -10 -9 -19 -22 -19 -28 1
-6 10 0 20 13 11 13 20 18 20 12 0 -13 -41 -74 -52 -79 -5 -2 -8 -11 -8 -20
-1 -15 -3 -14 -17 3 -14 18 -15 18 -9 2 3 -10 6 -23 6 -28 0 -5 4 -8 9 -7 5 2
9 -1 10 -5 0 -4 8 -15 17 -24 9 -10 12 -19 7 -20 -7 -3 -8 -18 -1 -45 5 -22 6
-43 3 -46 -3 -3 -5 2 -5 12 0 9 -6 19 -14 22 -19 7 -59 92 -52 111 3 8 1 11
-4 8 -25 -16 -5 22 46 86 57 70 67 78 79 59z m631 -189 c8 6 14 7 14 1 0 -12
-28 -35 -46 -38 -11 -2 -13 4 -9 19 5 17 4 19 -4 7 -9 -12 -11 -12 -16 2 -4 9
-1 24 7 32 11 12 15 11 26 -11 11 -20 16 -22 28 -12z m-76 -27 c0 5 8 2 18 -7
9 -8 22 -15 27 -15 6 0 15 -9 21 -21 6 -11 14 -18 17 -14 4 3 7 -4 7 -17 0
-18 -3 -20 -14 -10 -12 9 -15 8 -14 -7 0 -10 -2 -36 -6 -58 -3 -22 -3 -34 0
-27 3 6 9 10 13 8 4 -3 5 11 3 30 -3 22 0 34 8 34 7 0 10 -8 7 -20 -3 -13 -1
-18 6 -13 14 8 2 -94 -13 -113 -7 -7 -9 -23 -5 -35 6 -17 9 -19 16 -8 6 10 9
6 9 -13 0 -14 6 -29 13 -31 9 -4 9 -8 -2 -15 -9 -7 -11 -19 -7 -37 4 -16 3
-24 -3 -21 -5 4 -7 -6 -5 -23 6 -35 -14 -51 -32 -27 -14 20 -27 7 -13 -14 5
-8 9 -24 9 -35 0 -17 -2 -17 -10 -5 -8 13 -10 13 -10 -2 0 -9 4 -18 8 -20 5
-1 12 -18 15 -36 4 -20 3 -31 -3 -27 -6 4 -7 -1 -3 -12 6 -16 5 -17 -11 -3
-11 8 -14 16 -7 18 6 2 11 10 11 18 0 9 -5 12 -12 8 -7 -5 -8 -3 -4 5 5 7 0
21 -11 33 -10 12 -13 18 -7 15 7 -4 15 0 18 9 9 23 7 36 -4 29 -16 -10 -12 15
5 31 17 17 20 44 5 44 -5 0 -10 -6 -10 -14 0 -8 -4 -17 -8 -20 -4 -3 -7 14 -5
37 2 23 4 50 4 60 0 32 16 9 34 -50 10 -32 22 -62 27 -68 4 -5 3 5 -3 24 -8
23 -8 39 -1 56 9 19 7 24 -14 34 -13 6 -24 17 -24 26 0 19 16 20 24 0 3 -8 11
-15 18 -15 9 0 10 3 2 8 -6 4 -15 18 -19 31 -5 18 -9 20 -16 10 -6 -10 -9 -8
-9 9 0 13 6 22 15 22 20 0 19 14 -1 31 -12 10 -15 25 -11 57 3 25 1 39 -3 32
-6 -10 -9 -8 -13 6 -3 10 -3 1 0 -21 5 -36 4 -38 -10 -25 -12 11 -13 24 -7 55
4 22 8 34 9 28 0 -7 6 -13 13 -13 9 0 9 3 0 13 -7 6 -18 12 -25 12 -6 0 -13
13 -14 30 -1 16 -7 31 -12 33 -5 2 -7 10 -4 18 5 13 7 13 14 2 5 -7 9 -9 9 -4z
m-509 -36 c5 1 9 -3 9 -9 0 -6 -9 -9 -19 -6 -21 5 -38 -19 -18 -26 8 -3 4 -13
-12 -28 -13 -13 -20 -17 -17 -9 4 8 -2 4 -13 -10 -11 -14 -26 -41 -32 -60 -6
-19 -16 -40 -21 -46 -10 -14 7 -64 22 -64 5 0 10 -7 10 -15 0 -8 5 -15 10 -15
6 0 10 5 10 11 0 6 9 9 20 6 11 -3 27 1 35 10 13 13 15 11 15 -11 0 -14 5 -25
11 -23 6 1 12 -10 13 -25 1 -16 -2 -28 -6 -28 -4 0 -5 -7 -1 -16 3 -9 12 -13
21 -9 9 3 13 3 10 -1 -4 -3 -1 -13 7 -21 8 -8 15 -23 15 -33 0 -10 5 -22 10
-25 6 -3 10 -15 10 -27 0 -30 -23 -8 -57 53 -29 54 -44 60 -67 27 -13 -18 -16
-19 -16 -6 0 24 -40 35 -52 14 -5 -9 -12 -15 -16 -12 -9 5 -10 -47 -1 -54 4
-3 15 -22 25 -44 21 -43 36 -48 44 -17 5 19 7 19 25 -9 21 -32 35 -38 35 -17
0 12 20 -11 20 -25 0 -8 -21 -5 -38 6 -12 7 -41 -17 -42 -35 0 -4 -7 -9 -14
-12 -11 -4 -13 -1 -9 10 5 12 2 15 -10 10 -9 -3 -17 -2 -17 3 0 5 -7 15 -15
24 -18 17 -55 101 -55 122 0 9 -4 12 -10 9 -5 -3 -10 -1 -10 4 0 6 4 11 9 11
5 0 12 11 15 24 3 14 13 23 23 22 10 0 18 6 19 14 2 30 4 32 21 19 15 -13 15
-12 2 9 -8 12 -17 22 -21 22 -11 0 -48 42 -43 50 2 3 0 23 -5 44 -7 34 -5 41
21 69 18 21 29 27 29 17 1 -23 39 52 40 78 0 13 10 36 22 53 21 28 23 29 36
12 7 -10 18 -17 23 -15z m-11 -96 c0 -13 -36 -43 -42 -36 -4 3 1 14 10 24 18
20 32 25 32 12z m528 -52 c3 -7 0 -10 -7 -6 -7 5 -9 1 -4 -10 4 -12 3 -15 -5
-10 -16 9 -16 49 0 44 6 -2 14 -10 16 -18z m17 -50 c0 -24 -4 -40 -11 -40 -7
0 -14 -5 -16 -12 -3 -7 -7 -5 -11 6 -4 9 -3 15 2 12 11 -7 21 17 21 50 0 13 3
24 8 24 4 0 7 -18 7 -40z m-25 -1 c0 -14 -17 -10 -23 5 -4 10 -1 13 9 9 7 -3
14 -9 14 -14z m-476 -8 c3 -5 -1 -14 -8 -20 -12 -10 -13 -8 -9 8 6 23 9 25 17
12z m506 -50 c0 -5 -7 -14 -15 -21 -16 -14 -18 -10 -9 14 6 17 24 22 24 7z
m-20 -53 c0 -6 -6 -5 -15 2 -8 7 -15 14 -15 16 0 2 7 1 15 -2 8 -4 15 -11 15
-16z m123 -38 c3 -11 1 -20 -4 -20 -5 0 -9 2 -9 4 0 2 -3 11 -6 20 -3 9 -2 16
4 16 5 0 12 -9 15 -20z m1 -68 c-21 -5 -26 2 -18 22 6 15 7 15 20 -1 11 -15
10 -19 -2 -21z m0 -38 c-6 -24 -4 -26 17 -20 13 3 18 3 12 0 -7 -3 -13 -13
-13 -21 0 -12 -3 -13 -14 -4 -12 10 -13 7 -7 -21 5 -19 13 -43 19 -54 6 -12 9
-24 5 -27 -3 -3 4 -22 15 -41 12 -21 17 -38 11 -41 -15 -10 -49 5 -49 22 0 14
3 14 20 -2 18 -17 20 -17 14 -2 -3 9 -9 17 -13 18 -47 6 -50 5 -40 -8 8 -9 8
-13 1 -13 -6 0 -16 9 -22 19 -13 26 -13 34 2 25 7 -4 8 -3 4 4 -13 21 -26 13
-27 -15 -1 -21 -2 -23 -6 -8 -3 11 -12 26 -21 34 -15 12 -15 13 6 8 17 -4 22
-1 22 14 0 13 5 17 18 12 14 -5 15 -3 5 8 -19 20 -16 28 10 24 20 -4 20 -3 -5
16 -36 27 -39 67 -4 64 17 -2 26 3 29 16 3 10 8 19 11 19 4 0 3 -12 0 -26z
m-854 -39 c-1 -28 -88 -94 -100 -75 -4 7 -5 20 -2 29 4 10 7 11 10 3 2 -7 8
-12 13 -12 13 0 41 60 35 75 -7 20 4 25 25 12 10 -6 19 -21 19 -32z m895 -65
c3 -6 -1 -7 -9 -4 -18 7 -21 14 -7 14 6 0 13 -4 16 -10z m15 -50 c0 -11 -2
-20 -4 -20 -2 0 -6 9 -9 20 -3 11 -1 20 4 20 5 0 9 -9 9 -20z m-973 -18 c2
-14 -1 -21 -7 -17 -5 3 -10 13 -10 21 0 13 -2 13 -15 2 -36 -32 -44 -37 -50
-29 -7 12 46 51 64 48 8 -1 16 -12 18 -25z m54 -22 c6 0 6 -8 -1 -19 -13 -25
-13 -34 0 -26 16 10 12 -1 -15 -41 -21 -31 -25 -33 -25 -15 0 12 6 24 14 27 8
3 12 12 9 20 -3 8 -9 11 -14 8 -5 -3 -9 0 -9 5 0 6 6 11 13 12 10 0 10 2 0 6
-7 2 -13 12 -13 20 0 10 6 13 16 9 9 -3 20 -6 25 -6z m847 -36 c12 -8 22 -12
22 -7 0 4 7 -1 15 -11 8 -11 15 -16 15 -10 1 5 7 -6 15 -25 20 -45 18 -51 -5
-21 l-20 25 8 -25 c5 -14 7 -32 4 -40 -4 -9 -10 0 -18 25 -7 22 -13 32 -13 23
-1 -19 -21 -26 -21 -8 0 6 -7 10 -16 8 -10 -2 -19 4 -21 12 -4 13 -3 13 6 0 9
-12 11 -11 11 8 0 12 -6 22 -14 22 -9 0 -12 7 -9 20 6 24 12 25 41 4z m-905
-49 c-3 -9 -8 -14 -10 -11 -3 3 -2 9 2 15 9 16 15 13 8 -4z m993 -67 c4 -7 3
-8 -4 -4 -7 4 -12 2 -12 -5 0 -7 -3 -10 -6 -6 -6 5 3 27 11 27 2 0 7 -5 11
-12z"/>
<path d="M2156 6638 c-240 -28 -438 -202 -518 -456 -27 -86 -26 -200 4 -294
12 -38 26 -68 30 -68 4 0 8 -4 8 -10 0 -23 70 -100 123 -135 203 -133 492 -67
680 155 72 85 105 154 128 263 33 164 1 300 -98 418 -84 100 -207 144 -357
127z"/>
<path d="M2700 6234 c0 -14 4 -23 10 -19 6 3 10 15 10 26 0 10 -4 19 -10 19
-5 0 -10 -12 -10 -26z"/>
<path d="M1573 6120 c1 -11 5 -20 9 -20 4 0 8 9 8 20 0 11 -4 20 -9 20 -6 0
-9 -9 -8 -20z"/>
<path d="M2692 6065 c-17 -38 -15 -55 8 -55 26 0 38 46 18 66 -13 13 -16 11
-26 -11z"/>
<path d="M2642 5888 c-16 -16 6 -55 34 -61 29 -5 44 9 44 44 0 24 -4 27 -34
27 -19 0 -39 -5 -44 -10z"/>
<path d="M2660 5799 c0 -5 5 -7 10 -4 6 3 10 8 10 11 0 2 -4 4 -10 4 -5 0 -10
-5 -10 -11z"/>
<path d="M1155 5500 c-22 -4 -58 -10 -80 -13 -22 -3 -89 -13 -149 -22 -60 -8
-113 -15 -116 -15 -4 0 -10 -54 -14 -120 l-7 -120 -42 -43 c-41 -42 -45 -43
-136 -55 -52 -7 -97 -15 -102 -17 -4 -3 -10 -42 -14 -87 -4 -46 -8 -99 -10
-118 -2 -19 -7 -93 -10 -165 -4 -71 -7 -139 -8 -150 -2 -17 4 -20 48 -21 28
-1 88 5 135 11 46 7 90 10 98 8 18 -7 6 -178 -15 -212 -8 -13 -10 -20 -4 -17
8 5 11 -13 11 -58 l0 -65 28 4 c15 2 61 7 102 10 41 3 116 9 166 15 50 5 114
10 142 11 28 1 55 5 60 8 5 3 14 66 19 140 9 114 14 137 30 150 11 9 23 24 26
34 4 9 12 17 19 17 20 0 179 20 209 26 24 5 27 10 33 72 4 37 9 132 11 212 3
80 7 180 10 223 l7 78 -49 -6 c-26 -3 -77 -10 -113 -15 -36 -5 -85 -11 -110
-12 l-45 -3 3 163 3 162 -48 -1 c-26 -1 -66 -5 -88 -9z"/>
<path d="M1651 5054 c0 -11 3 -14 6 -6 3 7 2 16 -1 19 -3 4 -6 -2 -5 -13z"/>
<path d="M1622 4595 c-11 -12 -10 -15 3 -15 8 0 15 7 15 15 0 18 -2 18 -18 0z"/>
<path d="M2680 5650 c0 -5 4 -10 9 -10 6 0 13 5 16 10 3 6 -1 10 -9 10 -9 0
-16 -4 -16 -10z"/>
<path d="M2638 5503 c7 -3 16 -2 19 1 4 3 -2 6 -13 5 -11 0 -14 -3 -6 -6z"/>
<path d="M2655 5470 c-3 -5 -1 -10 4 -10 6 0 11 5 11 10 0 6 -2 10 -4 10 -3 0
-8 -4 -11 -10z"/>
<path d="M4690 5016 c0 -2 8 -10 18 -17 15 -13 16 -12 3 4 -13 16 -21 21 -21
13z"/>
<path d="M4425 4630 c-3 -6 1 -7 9 -4 18 7 21 14 7 14 -6 0 -13 -4 -16 -10z"/>
<path d="M4310 4605 c12 -13 27 -22 33 -18 5 3 -1 14 -14 24 -35 27 -46 23
-19 -6z"/>
<path d="M2628 5273 c7 -3 16 -2 19 1 4 3 -2 6 -13 5 -11 0 -14 -3 -6 -6z"/>
<path d="M2608 5168 c9 -9 15 -9 24 0 9 9 7 12 -12 12 -19 0 -21 -3 -12 -12z"/>
<path d="M3040 5039 c0 -8 32 -29 44 -29 3 0 6 6 6 14 0 7 -11 16 -25 18 -14
3 -25 2 -25 -3z"/>
<path d="M2790 4452 c0 -12 19 -26 26 -19 2 2 -2 10 -11 17 -9 8 -15 8 -15 2z"/>
<path d="M3180 4310 c-13 -8 -12 -10 3 -10 9 0 17 5 17 10 0 12 -1 12 -20 0z"/>
<path d="M3218 4313 c7 -3 16 -2 19 1 4 3 -2 6 -13 5 -11 0 -14 -3 -6 -6z"/>
<path d="M6228 4083 c7 -3 16 -2 19 1 4 3 -2 6 -13 5 -11 0 -14 -3 -6 -6z"/>
<path d="M5366 3717 c3 -10 9 -15 12 -12 3 3 0 11 -7 18 -10 9 -11 8 -5 -6z"/>
<path d="M5281 3654 c0 -11 3 -14 6 -6 3 7 2 16 -1 19 -3 4 -6 -2 -5 -13z"/>
<path d="M4750 3620 c0 -20 5 -30 15 -30 17 0 18 4 9 38 -9 32 -24 27 -24 -8z"/>
<path d="M4155 3630 c3 -5 10 -10 16 -10 5 0 9 5 9 10 0 6 -7 10 -16 10 -8 0
-12 -4 -9 -10z"/>
<path d="M4800 3469 c0 -5 5 -7 10 -4 6 3 10 8 10 11 0 2 -4 4 -10 4 -5 0 -10
-5 -10 -11z"/>
<path d="M4671 3271 l-24 -6 27 -13 c30 -13 56 -15 80 -6 15 6 15 8 -1 20 -19
14 -44 16 -82 5z"/>
<path d="M4830 3246 c0 -5 108 -66 117 -66 9 0 -100 69 -109 70 -5 0 -8 -2 -8
-4z"/>
<path d="M6115 3810 c-3 -5 1 -10 10 -10 9 0 13 5 10 10 -3 6 -8 10 -10 10 -2
0 -7 -4 -10 -10z"/>
<path d="M4591 2171 c-10 -7 -10 -10 -1 -16 6 -4 16 -3 22 3 13 13 -4 23 -21
13z"/>
<path d="M4506 2012 c-3 -5 -1 -14 3 -20 6 -10 10 -10 20 1 9 12 8 16 -3 20
-9 4 -17 3 -20 -1z"/>
<path d="M4310 1970 c0 -5 5 -10 11 -10 5 0 7 5 4 10 -3 6 -8 10 -11 10 -2 0
-4 -4 -4 -10z"/>
<path d="M4310 1933 c0 -7 4 -13 9 -13 5 0 11 6 14 13 3 8 -1 14 -9 14 -8 0
-14 -6 -14 -14z"/>
<path d="M4130 1758 c0 -9 5 -20 10 -23 13 -8 13 5 0 25 -8 13 -10 13 -10 -2z"/>
<path d="M4215 1803 c3 -8 5 -17 5 -19 0 -3 5 -2 10 1 16 10 12 32 -5 32 -10
0 -14 -6 -10 -14z"/>
<path d="M3100 1097 c0 -8 9 -17 20 -20 11 -3 20 -1 20 4 0 4 -9 13 -20 19
-16 8 -20 8 -20 -3z"/>
<path d="M3150 930 c0 -5 5 -10 11 -10 5 0 7 5 4 10 -3 6 -8 10 -11 10 -2 0
-4 -4 -4 -10z"/>
<path d="M3115 749 c-4 -6 -5 -12 -2 -15 2 -3 7 2 10 11 7 17 1 20 -8 4z"/>
<path d="M2480 553 c0 -5 5 -15 10 -23 8 -12 10 -11 10 8 0 12 -4 22 -10 22
-5 0 -10 -3 -10 -7z"/>
<path d="M3180 600 c6 -11 15 -20 20 -20 6 0 2 9 -7 20 -10 11 -19 20 -21 20
-1 0 2 -9 8 -20z"/>
<path d="M3200 530 c0 -5 5 -10 10 -10 6 0 10 5 10 10 0 6 -4 10 -10 10 -5 0
-10 -4 -10 -10z"/>
<path d="M3200 479 c0 -5 5 -7 10 -4 6 3 10 8 10 11 0 2 -4 4 -10 4 -5 0 -10
-5 -10 -11z"/>
<path d="M3205 370 c3 -5 8 -10 11 -10 2 0 4 5 4 10 0 6 -5 10 -11 10 -5 0 -7
-4 -4 -10z"/>
<path d="M2178 7183 c6 -2 18 -2 25 0 6 3 1 5 -13 5 -14 0 -19 -2 -12 -5z"/>
<path d="M2169 189 c-8 -16 -8 -28 0 -47 7 -14 8 -28 4 -31 -17 -12 -13 -46 7
-59 11 -7 20 -9 20 -4 0 4 9 13 20 19 16 11 23 9 40 -9 11 -12 20 -17 20 -10
0 6 7 9 15 6 29 -12 34 36 9 85 -13 24 -24 50 -24 57 0 17 -22 18 -38 2 -9 -9
-15 -9 -24 0 -18 18 -36 15 -49 -9z"/>
<path d="M2245 10 c-3 -5 1 -10 9 -10 9 0 16 5 16 10 0 6 -4 10 -9 10 -6 0
-13 -4 -16 -10z"/>
</g>
</svg>
